<svg xmlns="http://www.w3.org/2000/svg" viewBox="0 0 64 64">
  <defs>
    <linearGradient id="grad" x1="0%" y1="0%" x2="100%" y2="100%">
      <stop offset="0%" stop-color="#1976d2"/>
      <stop offset="100%" stop-color="#64b5f6"/>
    </linearGradient>
  </defs>
  <circle cx="32" cy="32" r="30" fill="url(#grad)" />
  <path d="M21 34l8 8 16-18" fill="none" stroke="#fff" stroke-width="4" stroke-linecap="round" stroke-linejoin="round"/>
  <g fill="#fff" opacity="0.85">
    <path d="M45.4 21.1l3.6-2.1-2-4.1-4.3.1c-.4-1.2-1-2.2-1.7-3.2l2.4-3.8-3.7-2.4-3 3.6c-1-.2-2-.3-3.1-.3s-2.1.1-3.1.3l-3-3.6-3.7 2.4 2.4 3.8c-.7 1-1.3 2.1-1.7 3.2l-4.3-.1-2 4.1 3.6 2.1c-.1 1.1-.1 2.2 0 3.3l-3.6 2.1 2 4.1 4.3-.1c.4 1.2 1 2.2 1.7 3.2l-2.4 3.8 3.7 2.4 3-3.6c1 .2 2 .3 3.1.3s2.1-.1 3.1-.3l3 3.6 3.7-2.4-2.4-3.8c.7-1 1.3-2.1 1.7-3.2l4.3.1 2-4.1-3.6-2.1c.1-1.1.1-2.2 0-3.3z"/>
  </g>
</svg>
